<svg xmlns="http://www.w3.org/2000/svg" width="544.817" height="73.682" viewBox="0 0 544.817 73.682">
  <path id="Path_2110" data-name="Path 2110" d="M105.709,2.471c25.9-2.8,54.814-2.494,83.5-1.3s57.3,2.85,83.107,2.065c30.993-1.25,63.044-.994,94.813-.556q11.893.107,23.759.331l23.529.215c1.951.018,3.906.061,5.845.061l5.8-.02,11.549-.02c3.845-.013,7.638.018,11.483-.024L460.715,3.1c.076,2.722-4.961,6.864.252,8.17,10.49,1.927,15.953,4.374,18.613,6.948,2.675,2.57,2.687,5.313,2.7,8.031,0,1.344-3.916,1.324-7.185,1.3-3.255,0-5.851.01-3.226,1.365-7.8,0-18.081.506-24.458,1.231-6.378.678-8.926,1.7-1.188,3.061,2.6,1.378,9.027,1.279,15.462,1.386s12.9.424,15.493,2.5,1.328,4.1.088,6.129-2.462,4.065.081,6.126l4.557.038,5.461.114c3.726.122,7.446.246,9.893.414,2.4,1.5,1.063,3.472-.2,5.1s-2.5,2.921-.117,3.059c7.105,1.763,15.161,2.824,23.427,4.27a126.994,126.994,0,0,1,24.6,6.373c-.5,1.26.2,3-.238,4.1-.219.552-.721.946-1.8,1.042a10.959,10.959,0,0,1-4.172-.193c-1-.383-2.077-.658-3.129-.968s-2.1-.632-3.172-.916L529.185,71l-1.636-.4-1.685-.328L522.5,69.6l-3.462-.543-1.73-.276c-.578-.09-1.181-.146-1.77-.222l-3.553-.434a278.3,278.3,0,0,0-30.346-1.286c-10.644.065-21.709.479-33.28.78l-17.387.3c-5.8.1-11.61.228-17.385.192-46.321.2-92.412-1.325-137.98-2.923-45.548-1.587-90.614-3.142-134.995-3.139l-4.164-.016-4.143.055-8.284.1-8.281.091-4.139.041c-1.382,0-2.759.029-4.127.085l-16.445.515-8.218.238c-2.729.116-5.442.293-8.163.433l-16.309.859c-1.356.08-2.723.114-4.07.229l-4.043.33-8.084.647-8.082.631-4.041.309L28,66.766l-2,.223L9.991,68.732c-19.663,1.191-6.128-6.077,8.1-12.08C13.375,58.65,12.739,54.6,8,56.6c-.332-2.022,1.7-5.043,6.327-8.061a46.929,46.929,0,0,1,8.914-4.4,48.7,48.7,0,0,1,5.984-1.806c2.167-.535,4.5-1.017,7.012-1.43l-7.582.729-3.792.364-3.773.488c-5.226-.691-.591-4.056-.966-6.759l3.725-.5c1.193-.136,2.3-.285,3.246-.463,1.888-.353,3.119-.815,3.03-1.494-.175-1.351-.528-4.062-.7-5.414-2.565.268-6.43.552-10.262,1.113L8.926,30.3c5.114-.671,10.23-1.341,10.039-2.692s-.58-4.058-.774-5.413a39.128,39.128,0,0,1,4.051-.852c1.43-.2,2.927-.351,4.468-.479,3.083-.253,6.345-.4,9.6-.538s6.515-.285,9.6-.538c1.541-.125,3.036-.283,4.467-.476,1.433-.153,2.8-.349,4.083-.6l-.4-4.07c-1.321-.085-2.719-.121-4.176-.12-1.455.042-2.968.131-4.519.247-3.1.233-6.353.588-9.6.986L26.2,17l-4.477.568-4.111.579c5.005-2.057,4.838-3.309,4.465-6.042,7.769-1.437,15.723-1.517,23.612-1.931,3.946-.261,7.883-.349,11.79-.84A59.123,59.123,0,0,0,69.121,6.823L53.381,7.85C58.29,4.112,67.5,3.17,77.4,2.871c9.892-.054,20.456.582,28.306-.4" transform="translate(-0.146 -0.3)" fill="#231f20"/>
</svg>
