<svg xmlns="http://www.w3.org/2000/svg" width="1130.959" height="132.504" viewBox="0 0 1130.959 132.504">
  <path id="Path_4018" data-name="Path 4018" d="M218.93,3.624C272.606-.666,332.535-.194,392,1.64S510.752,6,564.24,4.8c64.235-1.915,130.663-1.522,196.5-.851q24.649.163,49.241.507l48.766.329c4.043.027,8.1.093,12.114.093l12.029-.03,23.937-.031c7.97-.02,15.829.027,23.8-.037l24.07-.2c.157,4.167-10.282,10.51.523,12.51,21.741,2.95,33.063,6.7,38.576,10.638,5.544,3.934,5.569,8.135,5.59,12.3-.007,2.058-8.117,2.027-14.891,1.985-6.746,0-12.126.015-6.686,2.091-16.166,0-37.474.774-50.69,1.884-13.219,1.038-18.5,2.6-2.462,4.687,5.4,2.109,18.708,1.958,32.046,2.122s26.732.649,32.111,3.83c5.385,3.158,2.752,6.271.183,9.384s-5.1,6.224.167,9.379l9.446.058,11.318.175c7.722.187,15.432.377,20.5.634,4.965,2.3,2.2,5.315-.419,7.812s-5.176,4.472-.242,4.684c14.726,2.7,31.421,4.324,48.553,6.538,17.119,2.2,34.726,5.038,50.983,9.758-1.04,1.93.412,4.59-.493,6.281-.453.845-1.495,1.448-3.732,1.6a30.592,30.592,0,0,1-8.646-.3c-2.075-.586-4.3-1.008-6.484-1.481-2.2-.459-4.349-.967-6.574-1.4l-6.773-1.2-3.39-.606-3.492-.5-6.972-1.024-7.175-.831-3.585-.422c-1.2-.138-2.448-.224-3.669-.34l-7.364-.665c-19.862-1.569-40.937-2.028-62.894-1.969-22.059.1-44.993.734-68.974,1.195l-36.035.467c-12.021.157-24.063.349-36.031.295-96,.3-191.529-2.029-285.971-4.475-94.4-2.43-187.8-4.81-279.784-4.806l-8.63-.025-8.587.085-17.17.158-17.164.139-8.578.063c-2.864.007-5.718.044-8.553.131l-34.084.789-17.032.364c-5.655.178-11.278.449-16.919.664l-33.8,1.315c-2.81.122-5.644.174-8.434.351l-8.378.505-16.754.991-16.751.966-8.376.473-4.186.237-4.147.341L20.55,105.076c-40.752,1.824-12.7-9.3,16.788-18.5-9.774,3.06-11.092-3.143-20.909-.082-.688-3.1,3.518-7.722,13.113-12.343A114.159,114.159,0,0,1,48.017,67.42c3.755-1.108,7.917-1.922,12.4-2.765q6.738-1.229,14.533-2.19L59.237,63.582l-7.86.557-7.821.747c-10.832-1.057-1.224-6.21-2-10.349l7.72-.773c2.472-.209,4.77-.437,6.728-.708,3.914-.541,6.463-1.249,6.28-2.288-.364-2.069-1.094-6.219-1.458-8.289-5.316.41-13.326.844-21.269,1.7L18.344,46.239c10.6-1.027,21.2-2.054,20.806-4.122s-1.2-6.213-1.6-8.288c2.628-.506,5.437-.976,8.4-1.305,2.963-.3,6.066-.538,9.261-.733,6.39-.388,13.15-.607,19.9-.824s13.5-.436,19.887-.824c3.194-.192,6.293-.434,9.259-.728,2.97-.234,5.807-.535,8.462-.925l-.837-6.232c-2.738-.13-5.636-.186-8.654-.183-3.016.065-6.151.2-9.365.378-6.427.357-13.166.9-19.894,1.51l-19.819,1.9-9.28.87-8.52.886c10.374-3.149,10.027-5.066,9.254-9.252,16.1-2.2,32.586-2.323,48.938-2.956,8.178-.4,16.337-.535,24.436-1.285A160.7,160.7,0,0,0,143.1,10.288L110.478,11.86c10.175-5.723,29.269-7.166,49.787-7.623,20.5-.082,42.4.891,58.666-.612" transform="matrix(1, 0.017, -0.017, 1, 1.828, -0.302)" fill="#231f20"/>
</svg>
