<svg xmlns="http://www.w3.org/2000/svg" width="989.785" height="119.568" viewBox="0 0 989.785 119.568">
  <path id="Path_2104" data-name="Path 2104" d="M191.608,3.316c46.973-3.892,99.417-3.464,151.453-1.8S446.986,5.475,493.794,4.384C550.008,2.647,608.14,3,665.759,3.612q21.571.148,43.092.46l42.676.3c3.538.025,7.084.084,10.6.085l10.526-.027L793.6,4.4c6.975-.018,13.853.025,20.827-.033l21.064-.179c.137,3.78-9,9.534.458,11.348,19.026,2.676,28.934,6.075,33.759,9.65,4.852,3.569,4.873,7.379,4.892,11.154-.006,1.867-7.1,1.839-13.031,1.8-5.9,0-10.611.014-5.851,1.9-14.147,0-32.794.7-44.36,1.709C799.791,42.688,795.17,44.1,809.2,46c4.723,1.913,16.372,1.776,28.044,1.925s23.393.589,28.1,3.474c4.713,2.865,2.409,5.689.16,8.512s-4.465,5.646.146,8.508l8.266.053,9.9.159c6.757.169,13.5.342,17.943.575,4.345,2.088,1.927,4.822-.367,7.087s-4.53,4.057-.212,4.249c12.887,2.449,27.5,3.923,42.49,5.931s30.39,4.57,44.616,8.852c-.91,1.751.36,4.164-.431,5.7-.4.766-1.308,1.313-3.266,1.447a25.838,25.838,0,0,1-7.566-.268c-1.816-.532-3.766-.914-5.674-1.344s-3.806-.877-5.753-1.272l-5.927-1.091-2.966-.55-3.056-.455-6.1-.929-6.279-.754-3.137-.383c-1.049-.125-2.143-.2-3.211-.308l-6.444-.6c-17.381-1.424-35.824-1.839-55.04-1.786-19.3.091-39.375.665-60.36,1.084l-31.535.424c-10.519.143-21.058.317-31.531.267-84.013.274-167.61-1.841-250.258-4.059-82.612-2.2-164.35-4.364-244.844-4.36l-7.552-.023-7.515.077-15.026.143L209.8,86.4l-7.507.057c-2.506.006-5,.04-7.485.119l-29.827.716-14.905.33c-4.949.161-9.869.407-14.806.6l-29.58,1.193c-2.459.111-4.939.158-7.381.318l-7.332.458-14.662.9-14.659.876-7.33.429-3.663.215-3.629.309L18,95.347C-17.661,97,6.888,86.906,32.693,78.569c-8.554,2.776-9.707-2.851-18.3-.074-.6-2.809,3.078-7.005,11.475-11.2a97.671,97.671,0,0,1,16.168-6.11,109.345,109.345,0,0,1,10.853-2.508q5.9-1.115,12.718-1.987L51.858,57.706l-6.878.506-6.844.678c-9.479-.959-1.071-5.634-1.752-9.388l6.756-.7c2.163-.189,4.174-.4,5.888-.642,3.425-.491,5.656-1.133,5.5-2.075-.318-1.877-.957-5.641-1.276-7.519-4.652.372-11.662.766-18.613,1.546L16.071,41.973c9.275-.931,18.555-1.863,18.208-3.739s-1.052-5.636-1.4-7.518c2.3-.459,4.758-.886,7.348-1.184,2.593-.272,5.308-.488,8.1-.665,5.592-.352,11.507-.551,17.417-.747s11.817-.4,17.4-.747c2.795-.174,5.507-.393,8.1-.661,2.6-.212,5.081-.485,7.405-.839l-.732-5.653c-2.4-.118-4.932-.169-7.573-.166-2.639.059-5.383.182-8.2.343-5.624.324-11.522.817-17.409,1.37L47.4,23.494l-8.121.789-7.456.8c9.078-2.856,8.774-4.6,8.1-8.392,14.09-2,28.517-2.107,42.826-2.682,7.157-.363,14.3-.485,21.384-1.166A136.057,136.057,0,0,0,125.248,9.36L96.7,10.786c8.9-5.191,25.614-6.5,43.569-6.915,17.942-.075,37.1.808,51.339-.555" transform="matrix(1, 0.017, -0.017, 1, 1.646, -0.302)" fill="#231f20"/>
</svg>
