<svg xmlns="http://www.w3.org/2000/svg" xmlns:xlink="http://www.w3.org/1999/xlink" width="426.154" height="166.09" viewBox="0 0 426.154 166.09">
  <defs>
    <clipPath id="clip-path">
      <rect id="Rectangle_4744" data-name="Rectangle 4744" width="426.154" height="166.09" fill="#fff"/>
    </clipPath>
  </defs>
  <g id="Group_5228" data-name="Group 5228" clip-path="url(#clip-path)">
    <path id="Path_2104" data-name="Path 2104" d="M86.46,2.079c21.211-2.63,44.893-2.33,68.392-1.192s46.931,2.7,68.068,1.973c25.384-1.167,51.635-.915,77.655-.491q9.741.1,19.459.32l19.271.211c1.6.017,3.2.059,4.787.06l4.753-.016,9.459-.015c3.15-.011,6.255.019,9.4-.019l9.512-.118c.063,2.564-4.061,6.464.21,7.7,8.592,1.818,13.067,4.125,15.247,6.551s2.2,5.005,2.212,7.565c0,1.266-3.207,1.246-5.884,1.219-2.666,0-4.792.008-2.642,1.285a179.4,179.4,0,0,0-20.031,1.151c-5.224.636-7.31,1.6-.972,2.883,2.133,1.3,7.394,1.208,12.664,1.31s10.564.4,12.69,2.362,1.089,3.858.074,5.773-2.015,3.828.068,5.77l3.733.038,4.473.109c3.051.116,6.1.234,8.1.393,1.963,1.417.872,3.27-.164,4.806s-2.044,2.75-.094,2.882c5.82,1.663,12.418,2.665,19.189,4.03a93.334,93.334,0,0,1,20.15,6.011c-.411,1.187.164,2.824-.193,3.864a1.512,1.512,0,0,1-1.474.981,7.833,7.833,0,0,1-3.417-.183c-.82-.361-1.7-.621-2.563-.912s-1.719-.6-2.6-.863l-2.677-.741-1.34-.374-1.38-.309-2.756-.631-2.836-.513-1.417-.26c-.474-.085-.968-.138-1.45-.21l-2.91-.41a198.446,198.446,0,0,0-24.855-1.222c-8.717.058-17.78.444-27.257.724l-14.24.281c-4.75.095-9.509.211-14.239.175-37.938.17-75.689-1.28-113.012-2.8-37.306-1.511-74.217-2.99-110.567-3l-3.41-.017-3.394.051-6.785.094-6.783.083-3.39.037c-1.132,0-2.259.026-3.38.079l-13.469.48-6.731.221c-2.235.108-4.457.274-6.686.405l-13.357.8c-1.11.075-2.23.106-3.333.214l-3.311.309-6.621.607-6.619.591-3.31.29-1.654.145-1.639.209L8.087,64.457c-16.1,1.115-5.021-5.726,6.63-11.375-3.862,1.881-4.384-1.935-8.263-.054-.273-1.905,1.388-4.75,5.179-7.591a36.657,36.657,0,0,1,7.3-4.141,36.081,36.081,0,0,1,4.9-1.7c1.775-.5,3.689-.957,5.742-1.345l-6.21.685-3.106.342-3.09.458c-4.281-.652-.485-3.821-.794-6.367l3.051-.474c.977-.128,1.885-.268,2.659-.435,1.547-.332,2.554-.767,2.481-1.406-.144-1.273-.434-3.826-.578-5.1-2.1.251-5.266.517-8.4,1.045L7.2,28.262c4.188-.63,8.378-1.26,8.221-2.532s-.476-3.822-.636-5.1a28.433,28.433,0,0,1,3.318-.8c1.171-.184,2.4-.33,3.659-.449,2.525-.238,5.2-.371,7.865-.5s5.336-.266,7.859-.5c1.262-.117,2.487-.266,3.659-.446a33.167,33.167,0,0,0,3.344-.567l-.332-3.834c-1.082-.08-2.227-.115-3.42-.114-1.192.039-2.431.122-3.7.231-2.54.218-5.2.552-7.861.926l-7.832,1.168-3.667.534-3.367.544c4.1-1.935,3.961-3.115,3.655-5.69C24.329,9.773,30.844,9.7,37.305,9.313c3.232-.245,6.456-.326,9.656-.787A43.021,43.021,0,0,0,56.5,6.166L43.6,7.127c4.02-3.519,11.565-4.4,19.673-4.681C71.379,2.4,80.031,3,86.46,2.079" transform="matrix(1, 0.017, -0.017, 1, 0.546, 2.616)" fill="#fff"/>
  </g>
</svg>
