<svg xmlns="http://www.w3.org/2000/svg" xmlns:xlink="http://www.w3.org/1999/xlink" width="476" height="162.382" viewBox="0 0 476 162.382">
  <defs>
    <clipPath id="clip-path">
      <rect id="Rectangle_4744" data-name="Rectangle 4744" width="476" height="162.382" fill="#fff"/>
    </clipPath>
  </defs>
  <g id="Group_5228" data-name="Group 5228" clip-path="url(#clip-path)">
    <path id="Path_2104" data-name="Path 2104" d="M95.969,1c23.7-2.51,50.148-2.287,76.391-1.28S224.773,2.133,248.383,1.4C276.738.246,306.058.418,335.119.75Q346,.824,356.853,1l21.524.15c1.785.012,3.573.047,5.347.044l5.309-.027L399.6,1.132c3.518-.018,6.987,0,10.5-.04L420.728.959c.064,2.4-4.551,6.051.216,7.192,9.593,1.678,14.586,3.824,17.015,6.085s2.448,4.673,2.453,7.065c-.005,1.183-3.585,1.172-6.575,1.153-2.978.005-5.352.019-2.954,1.207-7.135.015-16.542.475-22.376,1.124-5.836.608-8.168,1.509-1.092,2.7,2.38,1.208,8.255,1.111,14.142,1.194s11.8.352,14.169,2.176,1.208,3.6.07,5.395-2.259,3.582.063,5.392l4.169.026,5,.091c3.408.1,6.811.2,9.049.348,2.189,1.32.966,3.054-.194,4.492s-2.29,2.576-.112,2.693c6.5,1.54,13.864,2.461,21.423,3.72a119.541,119.541,0,0,1,22.492,5.569c-.461,1.11.176,2.639-.225,3.612-.2.486-.661.834-1.649.92a10.406,10.406,0,0,1-3.816-.163c-.915-.335-1.9-.576-2.86-.847s-1.919-.553-2.9-.8l-2.988-.686-1.5-.346-1.541-.286-3.076-.583-3.166-.472-1.582-.24c-.529-.078-1.081-.127-1.619-.192l-3.25-.376a264.37,264.37,0,0,0-27.758-1.081c-9.737.075-19.86.458-30.446.743l-15.906.3c-5.306.1-10.622.22-15.9.2-42.375.251-84.536-1.012-126.219-2.342-41.665-1.321-82.888-2.614-123.488-2.537l-3.809-.007-3.79.056-7.579.1-7.576.094-3.786.043c-1.264.006-2.524.03-3.775.082l-15.045.481-7.518.223c-2.5.107-4.978.267-7.468.4l-14.921.783c-1.24.073-2.492.1-3.723.209l-3.7.3-7.4.583-7.395.569-3.7.279-1.848.14-1.831.2L8.288,59.489C-9.7,60.57,2.693,54.149,15.719,48.841c-4.318,1.767-4.892-1.8-9.229-.03-.3-1.78,1.562-4.443,5.8-7.107a43.825,43.825,0,0,1,8.163-3.888,46,46,0,0,1,5.477-1.6c1.984-.475,4.123-.9,6.417-1.271l-6.937.655-3.47.327-3.453.436c-4.78-.6-.533-3.57-.872-5.948l3.408-.451c1.091-.122,2.106-.255,2.97-.413,1.728-.314,2.854-.723,2.775-1.32-.158-1.189-.476-3.574-.634-4.764-2.347.24-5.883.5-9.39,1l-9.365,1.2c4.679-.6,9.361-1.2,9.188-2.387s-.523-3.571-.7-4.764a37.106,37.106,0,0,1,3.708-.757c1.308-.175,2.678-.314,4.088-.429,2.821-.228,5.8-.36,8.786-.49s5.961-.261,8.779-.49c1.41-.113,2.778-.254,4.088-.426,1.311-.137,2.564-.312,3.736-.538L48.7,11.8c-1.209-.072-2.488-.1-3.82-.1-1.331.04-2.715.12-4.134.225-2.837.21-5.813.528-8.783.884l-8.75,1.11-4.1.508-3.762.516c4.583-1.819,4.432-2.921,4.1-5.327,7.109-1.278,14.386-1.362,21.6-1.739,3.61-.237,7.212-.321,10.787-.759a56.049,56.049,0,0,0,10.654-2.23l-14.4.93c4.5-3.3,12.927-4.143,21.984-4.423,9.049-.064,18.712.478,25.895-.4" transform="matrix(1, 0.017, -0.017, 1, 1.193, 3.303)" fill="#fff"/>
  </g>
</svg>
