<svg xmlns="http://www.w3.org/2000/svg" xmlns:xlink="http://www.w3.org/1999/xlink" width="530.155" height="162.382" viewBox="0 0 530.155 162.382">
  <defs>
    <clipPath id="clip-path">
      <rect id="Rectangle_4744" data-name="Rectangle 4744" width="530.155" height="162.382" fill="#fff"/>
    </clipPath>
  </defs>
  <g id="Group_5228" data-name="Group 5228" clip-path="url(#clip-path)">
    <path id="Path_2104" data-name="Path 2104" d="M87.338,1.544C108.777-.908,132.7-.728,156.436.207s47.4,2.257,68.758,1.517C250.843.576,277.362.7,303.646.984q9.84.057,19.658.214l19.468.116c1.614.009,3.232.041,4.836.035l4.8-.033,9.556-.05c3.182-.022,6.319-.006,9.5-.053l9.61-.142c.053,2.31-4.13,5.84.179,6.933,8.673,1.605,13.184,3.667,15.376,5.844s2.2,4.5,2.2,6.808c-.008,1.141-3.245,1.135-5.95,1.121-2.693.009-4.841.025-2.674,1.168-6.454.024-14.963.48-20.242,1.114-5.28.593-7.391,1.466-.994,2.6,2.15,1.162,7.464,1.06,12.789,1.132s10.671.323,12.811,2.079,1.084,3.472.051,5.2-2.052,3.457.044,5.2l3.771.019,4.518.081c3.082.093,6.16.188,8.184.323,1.977,1.269.867,2.943-.186,4.331s-2.077,2.486-.108,2.6c5.873,1.476,12.534,2.354,19.368,3.558a102.382,102.382,0,0,1,20.331,5.339c-.42,1.071.154,2.544-.212,3.482-.183.469-.6.8-1.494.889a8.839,8.839,0,0,1-3.451-.152c-.827-.322-1.716-.553-2.585-.812s-1.734-.53-2.621-.768l-2.7-.657-1.352-.331-1.393-.273-2.781-.558-2.863-.451-1.43-.229c-.478-.075-.977-.121-1.464-.183l-2.938-.359a224.326,224.326,0,0,0-25.1-1.006c-8.807.086-17.965.468-27.539.756l-14.387.308c-4.8.1-9.608.226-14.385.213-38.328.3-76.46-.863-114.158-2.089C190.008,53.08,152.725,51.889,116,52.017l-3.445,0-3.429.059-6.855.111-6.853.1L92,52.332c-1.143.008-2.283.032-3.415.084L74.973,52.9l-6.8.225c-2.258.106-4.5.264-6.756.391l-13.5.775c-1.122.072-2.254.1-3.368.206l-3.346.291-6.691.572-6.69.558-3.345.274-1.672.137-1.656.195L7.9,58.048c-16.274,1.067-5.048-5.14,6.746-10.275-3.909,1.71-4.421-1.727-8.347-.017C6.03,46.042,7.72,43.472,11.561,40.9a38.807,38.807,0,0,1,7.392-3.759,39.8,39.8,0,0,1,4.958-1.55c1.8-.46,3.731-.876,5.807-1.234L23.442,35l-3.139.32-3.124.425c-4.322-.571-.474-3.441-.775-5.734l3.084-.439c.987-.119,1.905-.249,2.688-.4,1.564-.305,2.583-.7,2.513-1.277-.14-1.146-.422-3.445-.562-4.592-2.123.235-5.322.486-8.5.974L7.157,25.439c4.234-.584,8.47-1.167,8.316-2.313s-.465-3.442-.621-4.592a31.825,31.825,0,0,1,3.355-.735c1.184-.17,2.423-.306,3.7-.419,2.552-.224,5.251-.354,7.948-.484s5.392-.26,7.941-.484c1.275-.111,2.513-.249,3.7-.416,1.186-.134,2.319-.3,3.38-.524l-.319-3.453c-1.093-.068-2.25-.1-3.455-.09-1.2.04-2.456.12-3.74.223-2.567.207-5.259.517-7.946.864L21.5,14.1l-3.707.5-3.4.5c4.149-1.76,4.015-2.822,3.716-5.141,6.433-1.241,13.015-1.332,19.545-1.705,3.266-.233,6.523-.319,9.759-.746a48.1,48.1,0,0,0,9.642-2.164l-13.028.916c4.076-3.186,11.7-4.012,19.894-4.293,8.185-.074,16.923.436,23.423-.42" transform="matrix(1, 0.017, -0.017, 1, 32.183, 3)" fill="#fff"/>
  </g>
</svg>
