<svg xmlns="http://www.w3.org/2000/svg" xmlns:xlink="http://www.w3.org/1999/xlink" width="311.192" height="100.02" viewBox="0 0 311.192 100.02">
  <defs>
    <clipPath id="clip-path">
      <rect id="Rectangle_4744" data-name="Rectangle 4744" width="311.192" height="100.02" fill="none"/>
    </clipPath>
  </defs>
  <g id="Group_5228" data-name="Group 5228" clip-path="url(#clip-path)">
    <path id="Path_2104" data-name="Path 2104" d="M62.973,1.481C78.442-.761,95.705-.578,112.832.3s34.2,2.116,49.615,1.45c18.507-1.04,37.643-.9,56.61-.623q7.1.06,14.185.212l14.048.121c1.165.01,2.332.04,3.49.036l3.465-.027,6.9-.039c2.3-.018,4.56,0,6.856-.042l6.934-.124c.04,2.129-2.976,5.379.134,6.39,6.259,1.486,9.516,3.389,11.1,5.4s1.593,4.15,1.594,6.276c0,1.051-2.341,1.043-4.292,1.028-1.943.006-3.493.02-1.929,1.074a115.166,115.166,0,0,0-14.605,1.011c-3.809.543-5.333,1.345-.716,2.4,1.552,1.072,5.387.982,9.229,1.053s7.7.306,9.245,1.926.784,3.2.04,4.793-1.478,3.184.035,4.791l2.721.021,3.26.078c2.224.088,4.445.178,5.906.3,1.427,1.171.627,2.713-.131,3.991s-1.5,2.29-.076,2.393c4.238,1.365,9.046,2.179,13.978,3.293a61.586,61.586,0,0,1,14.674,4.936c-.3.987.112,2.345-.151,3.209a1.131,1.131,0,0,1-1.077.818,5.03,5.03,0,0,1-2.49-.143c-.6-.3-1.239-.511-1.866-.751s-1.252-.49-1.892-.71l-1.949-.608-.976-.307-1.005-.253-2.007-.516-2.066-.418-1.032-.212c-.345-.069-.705-.112-1.057-.17l-2.12-.333a127.031,127.031,0,0,0-18.116-.946c-6.355.072-12.963.418-19.871.676l-10.382.273c-3.463.092-6.932.2-10.38.185-27.657.246-55.172-.853-82.376-2.012s-54.1-2.278-80.593-2.187l-2.486,0-2.474.051-4.946.1-4.945.088-2.471.04c-.825.006-1.647.028-2.464.075l-9.82.436-4.907.2c-1.629.1-3.25.24-4.875.355l-9.739.7c-.81.065-1.626.095-2.43.187l-2.414.266-4.828.522-4.827.509-2.413.25-1.206.125-1.2.178L5.686,53.5c-11.742.971-3.646-4.741,4.861-9.465-2.82,1.573-3.191-1.595-6.023-.022-.194-1.581,1.024-3.948,3.794-6.318a26.334,26.334,0,0,1,5.332-3.459,24.387,24.387,0,0,1,3.576-1.424c1.3-.423,2.692-.8,4.189-1.133l-4.528.586-2.265.292-2.254.389c-3.119-.53-.344-3.171-.563-5.285l2.225-.4c.712-.109,1.375-.228,1.939-.368,1.128-.28,1.864-.644,1.812-1.175-.1-1.057-.307-3.176-.409-4.233-1.532.215-3.84.444-6.129.891l-6.114,1.07c3.054-.535,6.111-1.069,6-2.126s-.338-3.173-.451-4.232a18.749,18.749,0,0,1,2.421-.675c.854-.156,1.748-.28,2.669-.383,1.841-.2,3.789-.323,5.735-.44s3.89-.235,5.73-.44c.92-.1,1.813-.228,2.668-.381a21.578,21.578,0,0,0,2.439-.48L32.108,11.1c-.789-.064-1.623-.09-2.493-.085-.869.036-1.772.108-2.7.2-1.852.188-3.794.473-5.733.791L15.472,13l-2.674.453-2.456.461c2.993-1.618,2.9-2.6,2.679-4.735,4.641-1.139,9.391-1.218,14.1-1.557,2.356-.212,4.707-.289,7.041-.68a28.414,28.414,0,0,0,6.956-1.987l-9.4.834C34.658,2.859,40.161,2.1,46.072,1.85c5.906-.062,12.212.414,16.9-.369" transform="translate(11.7 -0.169)" fill="#231f20"/>
  </g>
</svg>
