<svg xmlns="http://www.w3.org/2000/svg" xmlns:xlink="http://www.w3.org/1999/xlink" width="426.155" height="162.382" viewBox="0 0 426.155 162.382">
  <defs>
    <clipPath id="clip-path">
      <rect id="Rectangle_4744" data-name="Rectangle 4744" width="426.155" height="162.382" fill="#fff"/>
    </clipPath>
  </defs>
  <g id="Group_5228" data-name="Group 5228" clip-path="url(#clip-path)">
    <path id="Path_2104" data-name="Path 2104" d="M70.361,2.142C87.587-.235,106.821.026,125.9,1.043S164.016,3.462,181.183,2.8c20.615-1.061,41.934-.844,63.065-.472q7.911.09,15.8.281l15.651.182c1.3.015,2.6.052,3.888.052l3.86-.017,7.682-.017c2.558-.011,5.08.015,7.638-.02l7.725-.11c.05,2.31-3.3,5.825.168,6.933,6.977,1.635,10.611,3.712,12.38,5.9s1.787,4.509,1.794,6.815c0,1.141-2.605,1.123-4.779,1.1-2.165,0-3.892.009-2.146,1.159a131.529,131.529,0,0,0-16.268,1.044c-4.242.575-5.937,1.44-.79,2.6,1.732,1.169,6,1.085,10.285,1.176s8.579.36,10.305,2.123.883,3.476.059,5.2-1.637,3.449.054,5.2l3.031.032,3.632.1c2.478.1,4.953.209,6.58.351,1.594,1.276.707,2.946-.135,4.33s-1.661,2.479-.078,2.6c4.726,1.5,10.084,2.4,15.582,3.624a70.255,70.255,0,0,1,16.362,5.408c-.334,1.07.132,2.544-.158,3.481a1.244,1.244,0,0,1-1.2.884,5.753,5.753,0,0,1-2.775-.164c-.666-.325-1.381-.559-2.081-.821s-1.4-.536-2.11-.777l-2.174-.666-1.088-.336-1.121-.278-2.238-.567-2.3-.461-1.15-.234c-.385-.076-.786-.124-1.178-.188l-2.363-.369a145.408,145.408,0,0,0-20.185-1.091c-7.08.056-14.44.407-22.136.662l-11.565.259c-3.858.087-7.723.194-11.563.163-30.811.168-61.468-1.125-91.778-2.48S123.1,52.708,93.578,52.711l-2.77-.014-2.756.047-5.51.087-5.508.077-2.753.035c-.919,0-1.835.025-2.745.072L60.6,53.453l-5.466.2c-1.815.1-3.619.249-5.43.368l-10.848.729c-.9.068-1.811.1-2.707.194l-2.689.28-5.377.549-5.376.535-2.688.262-1.343.131-1.331.189L6.694,58.372c-13.079,1.011-4.076-5.157,5.388-10.251-3.137,1.7-3.56-1.742-6.71-.045C5.151,46.359,6.5,43.8,9.58,41.235A29.192,29.192,0,0,1,15.509,37.5a27.433,27.433,0,0,1,3.98-1.533c1.442-.454,3-.863,4.664-1.214l-5.043.619-2.522.309-2.51.414c-3.476-.586-.393-3.442-.643-5.736l2.478-.428c.793-.116,1.531-.242,2.159-.392,1.256-.3,2.074-.692,2.015-1.268-.117-1.147-.351-3.447-.468-4.594-1.706.227-4.277.468-6.826.945L5.986,25.762c3.4-.569,6.8-1.138,6.677-2.284s-.386-3.443-.515-4.593a21.231,21.231,0,0,1,2.695-.723c.951-.166,1.947-.3,2.972-.406,2.051-.215,4.22-.336,6.387-.456s4.334-.241,6.382-.457c1.025-.106,2.02-.24,2.972-.4a24.53,24.53,0,0,0,2.716-.513L36,12.471c-.879-.072-1.809-.1-2.777-.1-.968.036-1.974.111-3.006.21-2.063.2-4.226.5-6.385.837l-6.361,1.055-2.978.482-2.734.491c3.329-1.745,3.218-2.808,2.97-5.128C19.9,9.1,25.191,9.03,30.439,8.679c2.625-.222,5.243-.3,7.842-.712a32.163,32.163,0,0,0,7.743-2.131l-10.47.871c3.266-3.172,9.393-3.971,15.978-4.225,6.58-.046,13.606.494,18.828-.339" transform="matrix(1, 0.017, -0.017, 1, 25.729, 2.698)" fill="#fff"/>
  </g>
</svg>
