<svg xmlns="http://www.w3.org/2000/svg" xmlns:xlink="http://www.w3.org/1999/xlink" width="279.071" height="162.382" viewBox="0 0 279.071 162.382">
  <defs>
    <clipPath id="clip-path">
      <rect id="Rectangle_4744" data-name="Rectangle 4744" width="279.071" height="162.382" fill="#fff"/>
    </clipPath>
  </defs>
  <g id="Group_5228" data-name="Group 5228" clip-path="url(#clip-path)">
    <path id="Path_2104" data-name="Path 2104" d="M56.344,1.779C70.222-.56,85.735-.146,101.132,1.05s30.752,2.791,44.593,2.228c16.619-.948,33.814-.564,50.858-.022q6.38.152,12.747.409l12.623.305c1.047.025,2.1.073,3.136.083l3.113.011,6.2.039c2.063.007,4.1.053,6.16.036l6.229-.056c.055,2.4-2.625,6.017.179,7.193,5.637,1.747,8.581,3.928,10.021,6.207s1.469,4.69,1.489,7.082c.005,1.183-2.094,1.146-3.847,1.106-1.746-.016-3.139-.02-1.723,1.186a82.574,82.574,0,0,0-13.114.963c-3.418.565-4.779,1.45-.621,2.688,1.4,1.225,4.849,1.17,8.3,1.3s6.921.437,8.324,2.278.734,3.612.08,5.395-1.3,3.566.076,5.392l2.445.056,2.93.127c2,.126,4,.253,5.309.413,1.293,1.335.588,3.061-.082,4.49s-1.324,2.559-.046,2.692c3.821,1.587,8.148,2.561,12.59,3.874a49.25,49.25,0,0,1,13.23,5.731c-.263,1.107.122,2.64-.106,3.61a1.064,1.064,0,0,1-.96.908,3.659,3.659,0,0,1-2.239-.191,17.162,17.162,0,0,0-1.683-.867c-.57-.269-1.129-.566-1.706-.821l-1.757-.707L283,63.826l-.905-.3-1.808-.605-1.86-.495-.929-.251c-.311-.082-.635-.135-.951-.2l-1.908-.4a91.83,91.83,0,0,0-16.286-1.282c-5.709.005-11.643.315-17.848.523L231.174,61c-3.111.062-6.227.143-9.325.084-24.847-.055-49.58-1.622-74.033-3.253S99.191,54.616,75.384,54.4l-2.234-.035-2.222.028-4.443.05-4.442.039-2.22.016c-.741,0-1.48.012-2.213.055l-8.819.373-4.407.169c-1.463.089-2.917.231-4.377.341l-8.744.675c-.727.064-1.46.087-2.182.182l-2.167.27-4.333.53-4.332.515-2.166.252L15,57.987l-1.072.186L5.349,59.628c-10.541.951-3.319-5.379,4.281-10.592-2.519,1.736-2.882-1.833-5.412-.1-.189-1.782.884-4.431,3.351-7.064a23.174,23.174,0,0,1,4.759-3.828,19.1,19.1,0,0,1,3.2-1.56,32.407,32.407,0,0,1,3.754-1.224l-4.063.6-2.032.3-2.022.411c-2.807-.634-.338-3.573-.554-5.954l2-.426a16.146,16.146,0,0,0,1.739-.391c1.011-.3,1.669-.7,1.617-1.3-.1-1.19-.3-3.577-.406-4.768-1.374.223-3.446.454-5.5.929L4.574,25.8c2.74-.565,5.481-1.13,5.371-2.32S9.613,19.9,9.5,18.711a14.015,14.015,0,0,1,2.169-.73c.766-.166,1.568-.295,2.394-.4,1.653-.208,3.4-.318,5.149-.426s3.493-.218,5.144-.426c.826-.1,1.627-.234,2.394-.4a15.751,15.751,0,0,0,2.187-.511L28.7,12.237a21.187,21.187,0,0,0-2.241-.126c-.78.03-1.591.1-2.423.2-1.662.19-3.4.486-5.144.821L13.77,14.174l-2.4.478-2.2.489c2.674-1.785,2.578-2.888,2.363-5.3,4.16-1.226,8.426-1.258,12.656-1.583,2.115-.21,4.227-.269,6.32-.681a21.311,21.311,0,0,0,6.232-2.152L28.3,6.255c2.614-3.266,7.551-4.05,12.86-4.264,5.306,0,10.976.613,15.182-.212" transform="matrix(1, 0.017, -0.017, 1, 0.641, 3.216)" fill="#fff"/>
  </g>
</svg>
