<svg xmlns="http://www.w3.org/2000/svg" xmlns:xlink="http://www.w3.org/1999/xlink" width="325.127" height="162.382" viewBox="0 0 325.127 162.382">
  <defs>
    <clipPath id="clip-path">
      <rect id="Rectangle_4744" data-name="Rectangle 4744" width="325.127" height="162.382" fill="#fff"/>
    </clipPath>
  </defs>
  <g id="Group_5228" data-name="Group 5228" clip-path="url(#clip-path)">
    <path id="Path_2104" data-name="Path 2104" d="M65.566,1.53C81.74-.848,99.811-.479,117.744.673s35.818,2.7,51.943,2.1c19.364-1,39.394-.662,59.249-.168q7.433.134,14.849.372l14.7.269c1.219.022,2.441.067,3.653.074l3.627,0,7.217.021c2.4,0,4.773.042,7.176.018l7.257-.074c.057,2.4-3.075,6.025.187,7.192,6.562,1.731,9.985,3.9,11.657,6.179s1.7,4.686,1.715,7.078c0,1.183-2.443,1.152-4.485,1.117-2.034-.011-3.656-.011-2.011,1.191a111.888,111.888,0,0,0-15.28,1c-3.983.575-5.572,1.464-.731,2.69,1.632,1.221,5.646,1.156,9.668,1.272s8.062.417,9.691,2.254.845,3.61.077,5.395-1.524,3.57.073,5.392l2.848.049,3.413.119c2.329.12,4.654.242,6.184.4,1.5,1.332.677,3.059-.108,4.49s-1.55,2.563-.062,2.692c4.447,1.576,9.485,2.537,14.655,3.838a62.337,62.337,0,0,1,15.4,5.693c-.309,1.108.135,2.64-.134,3.61a1.181,1.181,0,0,1-1.122.911,4.921,4.921,0,0,1-2.608-.184,21.254,21.254,0,0,0-1.959-.862c-.664-.267-1.314-.563-1.985-.817l-2.045-.7-1.023-.354-1.054-.294-2.1-.6-2.165-.49-1.082-.248c-.362-.081-.739-.133-1.107-.2L319.7,60.7a124.119,124.119,0,0,0-18.969-1.235c-6.651.022-13.565.348-20.794.574l-10.864.21c-3.624.071-7.255.161-10.863.111-28.946.017-57.755-1.48-86.238-3.04S115.329,54.247,87.6,54.1l-2.6-.028-2.589.035-5.177.063-5.175.052-2.586.022c-.863,0-1.724.016-2.579.061l-10.275.4-5.135.182c-1.7.093-3.4.24-5.1.354l-10.189.7c-.847.066-1.7.091-2.542.188l-2.525.277-5.049.542-5.049.528-2.524.258-1.262.129-1.25.189-10,1.48c-12.283.982-3.852-5.37,5.018-10.605-2.94,1.743-3.352-1.825-6.3-.081-.215-1.781,1.042-4.434,3.925-7.074a26.86,26.86,0,0,1,5.555-3.842,24.1,24.1,0,0,1,3.733-1.569,42.486,42.486,0,0,1,4.377-1.235l-4.736.616-2.369.308-2.356.417c-3.269-.626-.384-3.572-.628-5.953l2.326-.432c.745-.116,1.437-.243,2.027-.4,1.179-.3,1.946-.707,1.888-1.3-.115-1.19-.345-3.577-.459-4.767-1.6.227-4.016.464-6.409.945L5.185,25.7c3.193-.573,6.388-1.146,6.264-2.336s-.377-3.573-.5-4.767a18.33,18.33,0,0,1,2.529-.737c.893-.168,1.828-.3,2.791-.406,1.926-.213,3.963-.327,6-.441s4.07-.228,5.994-.441c.962-.105,1.9-.239,2.79-.4a21,21,0,0,0,2.549-.518l-.267-3.584c-.826-.079-1.7-.116-2.61-.12-.909.032-1.854.105-2.823.2-1.937.195-3.968.5-5.995.836l-5.971,1.062-2.8.485-2.567.5c3.12-1.793,3.011-2.9,2.768-5.3,4.85-1.238,9.82-1.282,14.749-1.619,2.465-.217,4.925-.281,7.365-.7a27.8,27.8,0,0,0,7.266-2.171l-9.833.85c3.055-3.273,8.808-4.071,14.994-4.3,6.182-.014,12.785.581,17.688-.256" transform="matrix(1, 0.017, -0.017, 1, 0.815, 3.303)" fill="#fff" stroke="#ed2224" stroke-width="2"/>
  </g>
</svg>
