<svg xmlns="http://www.w3.org/2000/svg" width="501.315" height="111.042" viewBox="0 0 501.315 111.042">
  <path id="Path_2104" data-name="Path 2104" d="M96.948,3.316c23.749-3.892,50.265-3.464,76.574-1.8s52.544,3.959,76.21,2.868C278.154,2.647,307.546,3,336.678,3.612q10.906.148,21.787.46l21.577.3c1.789.025,3.582.084,5.36.085l5.322-.027L401.315,4.4c3.526-.018,7,.025,10.53-.033l10.65-.179c.069,3.78-4.549,9.534.231,11.348,9.619,2.676,14.629,6.075,17.068,9.65s2.464,7.379,2.473,11.154c0,1.867-3.591,1.839-6.589,1.8-2.985,0-5.365.014-2.958,1.9a153.2,153.2,0,0,0-22.428,1.709c-5.849.942-8.185,2.357-1.089,4.252,2.388,1.913,8.278,1.776,14.179,1.925s11.828.589,14.208,3.474c2.383,2.865,1.218,5.689.081,8.512s-2.258,5.646.074,8.508l4.179.053,5.008.159c3.417.169,6.828.342,9.072.575,2.2,2.088.975,4.822-.185,7.087s-2.29,4.057-.107,4.249c6.516,2.449,13.9,3.923,21.483,5.931s15.365,4.57,22.558,8.852c-.46,1.751.182,4.164-.218,5.7a1.8,1.8,0,0,1-1.651,1.447,6.729,6.729,0,0,1-3.825-.268,29.781,29.781,0,0,0-2.869-1.344c-.972-.416-1.924-.877-2.909-1.272l-3-1.091-1.5-.55-1.545-.455-3.085-.929-3.175-.754-1.586-.383c-.53-.125-1.083-.2-1.623-.308l-3.258-.6a169.254,169.254,0,0,0-27.828-1.786c-9.76.091-19.908.665-30.518,1.084l-15.944.424c-5.319.143-10.647.317-15.942.267-42.477.274-84.743-1.841-126.53-4.059-41.768-2.2-83.095-4.364-123.792-4.36l-3.818-.023-3.8.077-7.6.143-7.594.127-3.8.057c-1.267.006-2.53.04-3.784.119L83.487,87.3l-7.536.33c-2.5.161-4.99.407-7.486.6L53.51,89.421c-1.243.111-2.5.158-3.732.318l-3.707.458-7.413.9-7.412.876L27.54,92.4l-1.852.215-1.835.309L9.174,95.347C-8.857,97,3.554,86.906,16.6,78.569c-4.325,2.776-4.908-2.851-9.251-.074-.3-2.809,1.556-7.005,5.8-11.2a40.052,40.052,0,0,1,8.175-6.11,34.439,34.439,0,0,1,5.487-2.508,59.469,59.469,0,0,1,6.43-1.987l-6.953,1.013-3.478.506-3.46.678c-4.793-.959-.542-5.634-.886-9.388l3.416-.7a29.849,29.849,0,0,0,2.977-.642c1.732-.491,2.86-1.133,2.779-2.075-.161-1.877-.484-5.641-.645-7.519-2.352.372-5.9.766-9.411,1.546L8.2,41.973c4.689-.931,9.381-1.863,9.206-3.739s-.532-5.636-.71-7.518a25.692,25.692,0,0,1,3.715-1.184c1.311-.272,2.684-.488,4.1-.665,2.827-.352,5.818-.551,8.806-.747s5.974-.4,8.8-.747c1.413-.174,2.784-.393,4.1-.661a29.1,29.1,0,0,0,3.744-.839l-.37-5.653c-1.212-.118-2.494-.169-3.829-.166-1.334.059-2.722.182-4.144.343-2.844.324-5.826.817-8.8,1.37l-8.769,1.727-4.106.789-3.77.8c4.59-2.856,4.436-4.6,4.095-8.392,7.124-2,14.418-2.107,21.653-2.682,3.618-.363,7.228-.485,10.812-1.166A39.019,39.019,0,0,0,63.4,9.36L48.963,10.786c4.5-5.191,12.95-6.5,22.028-6.915,9.071-.075,18.758.808,25.957-.555" transform="matrix(1, 0.017, -0.017, 1, 1.646, -0.302)" fill="#231f20"/>
</svg>
