<svg xmlns="http://www.w3.org/2000/svg" width="764.222" height="115.631" viewBox="0 0 764.222 115.631">
  <path id="Path_3569" data-name="Path 3569" d="M147.9,3.316c36.249-3.892,76.72-3.464,116.876-1.8s80.2,3.959,116.321,2.868c43.38-1.737,88.24-1.381,132.7-.772q16.646.148,33.254.46l32.933.3c2.731.025,5.467.084,8.181.085l8.123-.027L612.454,4.4c5.382-.018,10.69.025,16.072-.033l16.255-.179c.106,3.78-6.944,9.534.353,11.348,14.682,2.676,22.328,6.075,26.052,9.65,3.744,3.569,3.761,7.379,3.775,11.154,0,1.867-5.482,1.839-10.056,1.8-4.556,0-8.189.014-4.515,1.9-10.917,0-25.307.7-34.232,1.709-8.927.942-12.493,2.357-1.663,4.252,3.645,1.913,12.634,1.776,21.641,1.925s18.053.589,21.685,3.474c3.637,2.865,1.859,5.689.124,8.512s-3.446,5.646.113,8.508l6.379.053,7.643.159c5.215.169,10.422.342,13.847.575,3.353,2.088,1.487,4.822-.283,7.087s-3.5,4.057-.163,4.249c9.945,2.449,21.219,3.923,32.789,5.931s23.452,4.57,34.43,8.852c-.7,1.751.278,4.164-.333,5.7-.306.766-1.009,1.313-2.52,1.447a15.455,15.455,0,0,1-5.839-.268c-1.4-.532-2.907-.914-4.379-1.344s-2.937-.877-4.439-1.272l-4.574-1.091-2.289-.55-2.358-.455-4.709-.929-4.845-.754-2.421-.383c-.809-.125-1.653-.2-2.478-.308l-4.973-.6a392.508,392.508,0,0,0-42.474-1.786c-14.9.091-30.385.665-46.58,1.084l-24.335.424c-8.118.143-16.25.317-24.333.267-64.833.274-129.344-1.841-193.124-4.059-63.751-2.2-126.828-4.364-188.945-4.36l-5.828-.023-5.8.077-11.6.143-11.591.127-5.793.057c-1.934.006-3.861.04-5.776.119L127.35,87.3l-11.5.33c-3.819.161-7.616.407-11.426.6L81.6,89.421c-1.9.111-3.812.158-5.7.318l-5.658.458-11.314.9-11.312.876-5.656.429-2.827.215-2.8.309L13.925,95.347C-13.6,97,5.349,86.906,25.262,78.569c-6.6,2.776-7.491-2.851-14.121-.074-.465-2.809,2.376-7.005,8.856-11.2a65.889,65.889,0,0,1,12.477-6.11,68.553,68.553,0,0,1,8.375-2.508c3.033-.743,6.3-1.413,9.814-1.987L40.052,57.706l-5.308.506-5.281.678c-7.315-.959-.827-5.634-1.352-9.388l5.214-.7c1.669-.189,3.221-.4,4.543-.642,2.643-.491,4.365-1.133,4.241-2.075-.246-1.877-.739-5.641-.984-7.519-3.59.372-9,.766-14.364,1.546L12.435,41.973c7.157-.931,14.319-1.863,14.051-3.739S25.674,32.6,25.4,30.716a55.135,55.135,0,0,1,5.67-1.184c2-.272,4.1-.488,6.254-.665,4.315-.352,8.88-.551,13.441-.747s9.119-.4,13.43-.747c2.157-.174,4.25-.393,6.253-.661,2.006-.212,3.921-.485,5.715-.839L75.6,20.221c-1.849-.118-3.806-.169-5.844-.166-2.036.059-4.154.182-6.325.343-4.34.324-8.892.817-13.435,1.37L36.613,23.494l-6.267.789-5.754.8c7.006-2.856,6.771-4.6,6.25-8.392,10.873-2,22.006-2.107,33.049-2.682,5.523-.363,11.033-.485,16.5-1.166A83.3,83.3,0,0,0,96.687,9.36L74.656,10.786c6.872-5.191,19.766-6.5,33.622-6.915,13.845-.075,28.631.808,39.618-.555" transform="matrix(1, 0.017, -0.017, 1, 1.646, -0.302)" fill="#231f20"/>
</svg>
