<svg xmlns="http://www.w3.org/2000/svg" width="453.768" height="100.51" viewBox="0 0 453.768 100.51">
  <path id="Path_2104" data-name="Path 2104" d="M87.767,3.03c21.5-3.522,45.5-3.135,69.311-1.629S204.639,4.984,226.061,4c25.726-1.572,52.329-1.25,78.7-.7q9.872.134,19.721.416l19.53.27c1.619.022,3.242.076,4.852.077l4.817-.025,9.587-.026c3.192-.017,6.34.022,9.531-.03l9.64-.162c.063,3.422-4.118,8.63.21,10.272,8.707,2.422,13.242,5.5,15.449,8.735s2.23,6.68,2.239,10.1c0,1.69-3.251,1.664-5.964,1.63-2.7,0-4.856.013-2.678,1.717a138.666,138.666,0,0,0-20.3,1.547c-5.294.852-7.409,2.134-.986,3.848,2.162,1.732,7.492,1.608,12.834,1.742s10.706.533,12.86,3.145c2.157,2.593,1.1,5.149.073,7.7s-2.043,5.11.067,7.7l3.783.048,4.533.143c3.092.153,6.18.309,8.211.521,1.989,1.89.882,4.365-.168,6.414s-2.073,3.672-.1,3.846c5.9,2.217,12.584,3.551,19.445,5.368a78.435,78.435,0,0,1,20.418,8.012c-.417,1.585.165,3.769-.2,5.158a1.625,1.625,0,0,1-1.495,1.31,6.091,6.091,0,0,1-3.463-.243,26.959,26.959,0,0,0-2.6-1.216c-.88-.376-1.742-.794-2.633-1.151l-2.712-.987-1.358-.5-1.4-.412-2.792-.84-2.874-.682-1.436-.346c-.48-.113-.981-.184-1.469-.279l-2.949-.546A153.2,153.2,0,0,0,399.8,83.959c-8.835.082-18.019.6-27.624.981l-14.432.383c-4.814.129-9.637.287-14.43.242-38.448.248-76.706-1.666-114.529-3.674-37.807-2-75.214-3.95-112.051-3.946l-3.456-.02-3.439.069-6.876.13-6.874.115-3.435.052c-1.147.006-2.29.036-3.425.107l-13.65.648-6.821.3c-2.265.146-4.517.369-6.776.545l-13.537,1.08c-1.125.1-2.261.143-3.378.288l-3.355.415-6.71.814-6.709.793-3.354.388-1.677.195-1.661.28L8.318,86.332c-16.321,1.5-5.086-7.64,6.723-15.187-3.914,2.513-4.442-2.581-8.374-.067-.276-2.543,1.409-6.341,5.252-10.135a36.253,36.253,0,0,1,7.4-5.531,31.173,31.173,0,0,1,4.967-2.27,53.828,53.828,0,0,1,5.82-1.8l-6.294.917-3.148.458-3.132.613c-4.338-.868-.49-5.1-.8-8.5l3.092-.635a27.017,27.017,0,0,0,2.694-.581c1.567-.444,2.589-1.025,2.515-1.878-.146-1.7-.438-5.106-.584-6.806-2.129.337-5.337.693-8.518,1.4l-8.5,1.687c4.244-.843,8.492-1.686,8.333-3.384s-.481-5.1-.642-6.8a23.256,23.256,0,0,1,3.363-1.072c1.187-.247,2.429-.441,3.709-.6,2.559-.319,5.266-.5,7.971-.676s5.408-.358,7.964-.676c1.279-.157,2.52-.356,3.708-.6a26.341,26.341,0,0,0,3.389-.759l-.335-5.117c-1.1-.106-2.257-.153-3.466-.151-1.208.053-2.463.165-3.751.311-2.574.293-5.273.74-7.967,1.24l-7.937,1.563-3.716.715-3.412.728c4.155-2.585,4.016-4.16,3.706-7.6,6.448-1.806,13.051-1.907,19.6-2.427,3.275-.328,6.543-.439,9.786-1.055A35.318,35.318,0,0,0,57.4,8.5L44.333,9.791c4.075-4.7,11.722-5.884,19.939-6.259,8.211-.067,16.979.731,23.5-.5" transform="matrix(1, 0.017, -0.017, 1, 1.476, -0.302)" fill="#231f20"/>
</svg>
