<svg xmlns="http://www.w3.org/2000/svg" xmlns:xlink="http://www.w3.org/1999/xlink" width="798.454" height="174.748" viewBox="0 0 798.454 174.748">
  <defs>
    <clipPath id="clip-path">
      <rect id="Rectangle_4744" data-name="Rectangle 4744" width="798.454" height="174.748" fill="#fff"/>
    </clipPath>
  </defs>
  <g id="Group_5228" data-name="Group 5228" clip-path="url(#clip-path)">
    <path id="Path_2104" data-name="Path 2104" d="M127.341,2.754C158.433-.088,193.109-.074,227.5.768s68.688,2.105,99.65,1.134C364.339.451,402.776.387,440.872.5q14.262-.013,28.491.084L497.58.557c2.339,0,4.684.02,7.01,0L511.55.486,525.4.359c4.612-.048,9.16-.055,13.772-.13L553.1,0c.06,2.524-6.028,6.414.21,7.576,12.559,1.688,19.083,3.907,22.244,6.27,3.179,2.358,3.162,4.9,3.144,7.424-.019,1.247-4.712,1.265-8.632,1.27-3.9.03-7.017.064-3.885,1.3-9.355.075-21.691.639-29.347,1.372-7.657.689-10.724,1.658-1.459,2.851,3.107,1.253,10.811,1.1,18.528,1.14s15.464.272,18.553,2.175,1.546,3.787.036,5.684-3,3.793.027,5.681l5.466-.007,6.548.055c4.467.078,8.927.158,11.86.291,2.856,1.372,1.235,3.21-.3,4.735s-3.028,2.733-.175,2.839c8.5,1.569,18.151,2.477,28.048,3.741a187.187,187.187,0,0,1,29.43,5.68c-.616,1.174.2,2.779-.332,3.807-.269.514-.876.884-2.172.983a16.9,16.9,0,0,1-5-.14c-1.2-.346-2.483-.591-3.741-.868s-2.51-.566-3.794-.819l-3.91-.7-1.957-.352-2.017-.288-4.027-.589-4.146-.471-2.071-.239c-.693-.078-1.415-.125-2.121-.189l-4.256-.369c-11.482-.861-23.674-1.043-36.381-.908-12.766.161-26.042.648-39.922,1.037l-20.856.446c-6.957.15-13.927.321-20.852.342-55.556.619-110.818-.361-165.451-1.414C275.784,58.3,221.752,57.279,168.525,57.7l-4.994.024-4.97.09-9.937.173-9.933.162-4.964.077c-1.657.017-3.309.053-4.95.118l-19.729.633-9.859.3c-3.274.133-6.53.323-9.8.479l-19.569.95c-1.627.087-3.268.131-4.883.251l-4.852.344-9.7.676-9.7.661-4.85.325-2.424.163-2.4.225L11.79,65.115c-23.6,1.29-7.28-5.579,9.852-11.281-5.679,1.9-6.4-1.854-12.1.045-.375-1.873,2.093-4.694,7.68-7.537a65.506,65.506,0,0,1,10.741-4.165,72.679,72.679,0,0,1,7.2-1.731q3.908-.775,8.426-1.393l-9.1.748-4.552.373-4.531.488c-6.26-.591-.662-3.757-1.082-6.26l4.473-.5c1.432-.138,2.764-.286,3.9-.46,2.269-.346,3.749-.786,3.651-1.414-.195-1.252-.587-3.762-.782-5.015-3.079.272-7.718.572-12.321,1.129L10.95,29.481c6.141-.67,12.285-1.34,12.07-2.591s-.649-3.758-.867-5.013c1.525-.318,3.153-.616,4.869-.829,1.717-.2,3.514-.353,5.364-.486,3.7-.264,7.614-.427,11.523-.589s7.817-.325,11.514-.589c1.849-.131,3.645-.291,5.363-.483,1.721-.155,3.364-.35,4.9-.6l-.438-3.771c-1.584-.066-3.26-.087-5.007-.072-1.746.053-3.561.149-5.422.272-3.722.245-7.626.605-11.523,1.005L31.818,16.978l-5.376.569-4.937.576c6.026-1.955,5.84-3.115,5.424-5.647C36.263,11.07,45.8,10.921,55.27,10.463c4.735-.279,9.458-.4,14.15-.89A90.044,90.044,0,0,0,83.411,7.135l-18.89,1.1c5.931-3.513,16.99-4.474,28.867-4.844,11.864-.143,24.526.347,33.953-.637" transform="matrix(1, 0.017, -0.017, 1, 73.193, 0.96)" fill="#fff"/>
  </g>
</svg>
