<svg xmlns="http://www.w3.org/2000/svg" width="621.661" height="113.143" viewBox="0 0 621.661 113.143">
  <path id="Path_2104" data-name="Path 2104" d="M120.27,3.316c29.471-3.892,62.375-3.464,95.022-1.8s65.2,3.959,94.571,2.868C345.132,2.647,381.6,3,417.754,3.612q13.534.148,27.036.46l26.775.3c2.22.025,4.445.084,6.651.085l6.6-.027L497.964,4.4c4.376-.018,8.691.025,13.067-.033l13.216-.179c.086,3.78-5.646,9.534.287,11.348,11.937,2.676,18.153,6.075,21.18,9.65,3.044,3.569,3.057,7.379,3.069,11.154,0,1.867-4.457,1.839-8.176,1.8-3.7,0-6.658.014-3.671,1.9A235.057,235.057,0,0,0,509.1,41.747c-7.258.942-10.157,2.357-1.352,4.252,2.963,1.913,10.272,1.776,17.595,1.925s14.677.589,17.631,3.474c2.957,2.865,1.511,5.689.1,8.512s-2.8,5.646.092,8.508l5.186.053,6.214.159c4.24.169,8.473.342,11.258.575,2.726,2.088,1.209,4.822-.23,7.087s-2.842,4.057-.133,4.249c8.085,2.449,17.252,3.923,26.658,5.931s19.067,4.57,27.992,8.852c-.571,1.751.226,4.164-.271,5.7a2.115,2.115,0,0,1-2.049,1.447,10.272,10.272,0,0,1-4.747-.268c-1.139-.532-2.363-.914-3.56-1.344s-2.388-.877-3.609-1.272l-3.719-1.091-1.861-.55-1.917-.455-3.828-.929-3.939-.754-1.968-.383c-.658-.125-1.344-.2-2.014-.308l-4.043-.6a259.9,259.9,0,0,0-34.532-1.786c-12.112.091-24.7.665-37.87,1.084l-19.785.424c-6.6.143-13.212.317-19.783.267-52.71.274-105.159-1.841-157.013-4.059-51.831-2.2-103.114-4.364-153.616-4.36l-4.738-.023-4.715.077-9.427.143-9.424.127-4.71.057c-1.572.006-3.139.04-4.7.119l-18.714.716-9.352.33c-3.105.161-6.192.407-9.289.6L66.366,89.421c-1.543.111-3.1.158-4.631.318l-4.6.458-9.2.9-9.2.876-4.6.429-2.3.215-2.277.309L11.349,95.347C-11.026,97,4.376,86.906,20.566,78.569c-5.367,2.776-6.09-2.851-11.48-.074-.378-2.809,1.931-7.005,7.2-11.2a50.306,50.306,0,0,1,10.144-6.11,48.245,48.245,0,0,1,6.809-2.508c2.466-.743,5.126-1.413,7.979-1.987L32.59,57.706l-4.315.506-4.294.678c-5.947-.959-.672-5.634-1.1-9.388l4.239-.7c1.357-.189,2.619-.4,3.694-.642,2.149-.491,3.549-1.133,3.448-2.075-.2-1.877-.6-5.641-.8-7.519-2.919.372-7.317.766-11.678,1.546L10.137,41.973c5.819-.931,11.641-1.863,11.423-3.739s-.66-5.636-.881-7.518a37.638,37.638,0,0,1,4.61-1.184c1.627-.272,3.33-.488,5.085-.665,3.509-.352,7.22-.551,10.928-.747s7.414-.4,10.919-.747c1.753-.174,3.455-.393,5.084-.661a43.67,43.67,0,0,0,4.646-.839l-.459-5.653c-1.5-.118-3.095-.169-4.752-.166-1.656.059-3.377.182-5.142.343-3.529.324-7.229.817-10.923,1.37L29.794,23.494l-5.095.789-4.678.8c5.7-2.856,5.505-4.6,5.081-8.392,8.84-2,17.892-2.107,26.869-2.682,4.49-.363,8.97-.485,13.416-1.166A56.987,56.987,0,0,0,78.636,9.36L60.724,10.786c5.587-5.191,16.07-6.5,27.336-6.915,11.257-.075,23.277.808,32.21-.555" transform="matrix(1, 0.017, -0.017, 1, 1.646, -0.302)" fill="#231f20"/>
</svg>
