<svg id="Group_5399" data-name="Group 5399" xmlns="http://www.w3.org/2000/svg" xmlns:xlink="http://www.w3.org/1999/xlink" width="24.789" height="28.885" viewBox="0 0 24.789 28.885">
  <defs>
    <clipPath id="clip-path">
      <rect id="Rectangle_5440" data-name="Rectangle 5440" width="24.789" height="28.885" fill="none"/>
    </clipPath>
  </defs>
  <g id="Group_5398" data-name="Group 5398" clip-path="url(#clip-path)">
    <path id="Path_4009" data-name="Path 4009" d="M19.518,0a1.42,1.42,0,0,1,.943.7,3.862,3.862,0,0,1,.2.891,2.847,2.847,0,0,1,0,.453c.14,0,.249,0,.359,0,.65.009,1.3-.031,1.947.039a2.037,2.037,0,0,1,1.779,2.407,10.705,10.705,0,0,1-5.235,7.532.922.922,0,0,0-.4.446,10.726,10.726,0,0,1-2.771,3.966,10.972,10.972,0,0,1-1.563,1.05.453.453,0,0,0-.27.455,3.058,3.058,0,0,0,2.224,2.93c.551.156.678.325.679.9,0,.939,0,1.879,0,2.866.468,0,.919-.019,1.367,0a1.855,1.855,0,0,1,1.8,1.515,13.112,13.112,0,0,1,.05,2.218.6.6,0,0,1-.57.5,2.554,2.554,0,0,1-.282.006H5.061c-.66,0-.873-.215-.873-.882,0-.479-.008-.959,0-1.438a1.966,1.966,0,0,1,1.853-1.92c.449-.026.9,0,1.385,0v-.82c0-.705,0-1.41,0-2.115a.719.719,0,0,1,.636-.827,3.055,3.055,0,0,0,2.268-2.9.428.428,0,0,0-.286-.469A8.18,8.18,0,0,1,6.6,14.234c-.359-.582-.636-1.213-.965-1.814a.97.97,0,0,0-.322-.359A10.768,10.768,0,0,1,.036,4.491,2.081,2.081,0,0,1,2.123,2.047c.649-.01,1.3,0,2.012,0A1.637,1.637,0,0,1,5.272,0ZM12.4,1.34c-2.214,0-4.427,0-6.641-.006-.25,0-.32.071-.316.318.024,1.362,0,2.726.052,4.087a16.838,16.838,0,0,0,1.36,6.125,9.755,9.755,0,0,0,2.606,3.7,4.273,4.273,0,0,0,5.857-.015,8.84,8.84,0,0,0,1.43-1.585A14.513,14.513,0,0,0,19.219,6.6c.128-1.636.079-3.286.124-4.93.008-.284-.093-.338-.355-.337-2.195.01-4.389.006-6.584.006M5.533,27.525h13.8c0-.223,0-.428,0-.633,0-.711-.218-.932-.919-.932H6.44a2.446,2.446,0,0,0-.31.008.63.63,0,0,0-.591.583c-.026.315-.006.634-.006.973M8.787,24.6H16.06V22.243H8.787ZM19.951,10.131c.229-.2.4-.341.567-.494a9.418,9.418,0,0,0,2.887-5.2c.132-.681-.172-1.046-.867-1.047H20.66a22.636,22.636,0,0,1-.709,6.746M4.793,10.055a23.513,23.513,0,0,1-.667-6.669c-.721,0-1.389-.011-2.056,0a.717.717,0,0,0-.708.857,8.593,8.593,0,0,0,.244,1.1,9.23,9.23,0,0,0,3.187,4.711m6.883,7.976a4.486,4.486,0,0,1-1.11,2.83H14.3a4.519,4.519,0,0,1-1.128-2.83Z" transform="translate(0)" fill="#fff"/>
    <path id="Path_4011" data-name="Path 4011" d="M111.452,59.082c.1-.567.209-1.2.3-1.827a.451.451,0,0,0-.11-.332c-.406-.418-.826-.824-1.248-1.226a.686.686,0,0,1-.227-.736.669.669,0,0,1,.607-.474c.577-.083,1.156-.156,1.731-.256a.492.492,0,0,0,.309-.22c.275-.513.53-1.037.781-1.561a.68.68,0,0,1,1.269-.006c.244.507.508,1.006.743,1.517a.456.456,0,0,0,.426.291c.542.059,1.08.152,1.621.229a.686.686,0,0,1,.4,1.234c-.41.388-.807.79-1.216,1.178a.369.369,0,0,0-.136.388c.111.542.193,1.09.288,1.636a.7.7,0,0,1-1.076.794c-.5-.268-.994-.534-1.5-.782a.461.461,0,0,0-.356,0c-.54.265-1.065.559-1.6.828a.67.67,0,0,1-1-.674m.8-3.454c.238.236.422.437.625.615a.812.812,0,0,1,.276.833c-.054.273-.094.549-.149.878.3-.153.552-.268.79-.411a.788.788,0,0,1,.875,0c.238.139.49.255.784.406-.054-.314-.09-.573-.144-.827a.848.848,0,0,1,.3-.906c.2-.168.379-.365.607-.588-.364-.056-.649-.109-.936-.141a.741.741,0,0,1-.628-.454c-.127-.266-.263-.529-.419-.842-.163.325-.3.6-.437.871a.711.711,0,0,1-.589.421c-.3.038-.589.088-.951.143" transform="translate(-101.836 -48.089)" fill="#fff"/>
  </g>
</svg>
