<svg xmlns="http://www.w3.org/2000/svg" width="13.309" height="30.073" viewBox="0 0 13.309 30.073">
  <g id="Group_5101" data-name="Group 5101" opacity="0.85">
    <g id="Group_5094" data-name="Group 5094" transform="translate(0)">
      <g id="Group_199" data-name="Group 199" transform="translate(0)">
        <path id="Path_67" data-name="Path 67" d="M191.282,542.577c-.139,1.349-.247,2.7-.408,4.05-.1.861-.01.726-.763.73-.965.005-1.929.009-2.894,0-.255,0-.328.076-.327.329.008,2.383,0,4.765,0,7.147v7.061c0,.419-.02.44-.44.441q-2.489,0-4.977,0c-.544,0-.575-.029-.575-.569V547.815c0-.457,0-.457-.459-.457-.685,0-1.37,0-2.055,0-.348,0-.391-.04-.391-.378,0-1.514,0-3.028-.005-4.543,0-.278.111-.38.377-.378.723.006,1.447-.008,2.17.006.275.005.368-.085.368-.364,0-1.1,0-2.2.043-3.3a7.741,7.741,0,0,1,.851-3.529,4.7,4.7,0,0,1,2.714-2.207,8.244,8.244,0,0,1,2.528-.4c1.273-.026,2.546-.008,3.82-.006.4,0,.431.033.431.426q0,2.214,0,4.428c0,.395-.05.445-.453.447-.83,0-1.659,0-2.488.007a1.242,1.242,0,0,0-1.411,1.291c-.013.983-.028,1.966-.05,2.948-.006.251.149.247.323.247q1.809,0,3.617,0C191.317,542.062,191.331,542.092,191.282,542.577Z" transform="translate(-177.992 -532.259)" fill="#fff"/>
      </g>
    </g>
  </g>
</svg>
