<svg xmlns="http://www.w3.org/2000/svg" xmlns:xlink="http://www.w3.org/1999/xlink" width="18.556" height="18.542" viewBox="0 0 18.556 18.542">
  <defs>
    <clipPath id="clip-path">
      <rect id="Rectangle_4531" data-name="Rectangle 4531" width="15.292" height="15.312" fill="#fff"/>
    </clipPath>
  </defs>
  <g id="Group_5326" data-name="Group 5326" transform="translate(145.95 17.542) rotate(-104)">
    <g id="Group_5128" data-name="Group 5128" transform="translate(33.443 -138.266)" clip-path="url(#clip-path)">
      <path id="Path_1929" data-name="Path 1929" d="M3.214,0A1.985,1.985,0,0,1,3.99.358c.034.029.07.056.1.087.691.69,1.384,1.377,2.07,2.072a1.438,1.438,0,0,1,.232,1.806,1.27,1.27,0,0,1-.666.55,1.51,1.51,0,0,0-.941.834,1.262,1.262,0,0,0-.062.844A5.174,5.174,0,0,0,5.987,8.7,6.781,6.781,0,0,0,8.04,10.294a1.951,1.951,0,0,0,1.143.264,1.408,1.408,0,0,0,1.13-.8,2.873,2.873,0,0,1,.354-.632,1.407,1.407,0,0,1,1.974-.119c.23.2.437.422.652.636.49.489.977.982,1.47,1.467a1.48,1.48,0,0,1,.5,1.014.255.255,0,0,0,.024.07v.09a.476.476,0,0,0-.028.1,1.494,1.494,0,0,1-.436.957c-.452.464-.914.917-1.372,1.375a1.872,1.872,0,0,1-.783.474,3.531,3.531,0,0,1-1.914-.027,10.483,10.483,0,0,1-3.17-1.451,19.54,19.54,0,0,1-3.23-2.621A17.924,17.924,0,0,1,.832,6.362,7.056,7.056,0,0,1,0,3.522,2.22,2.22,0,0,1,.678,1.7c.35-.325.685-.667,1.015-1.013A2.018,2.018,0,0,1,2.766,0Z" transform="translate(0)" fill="#fff"/>
    </g>
  </g>
</svg>
