<svg xmlns="http://www.w3.org/2000/svg" width="29.856" height="29.882" viewBox="0 0 29.856 29.882">
  <g id="Group_5100" data-name="Group 5100" opacity="0.85">
    <g id="Group_5095" data-name="Group 5095" transform="translate(0)">
      <g id="VA019A" transform="translate(0 0)">
        <g id="Group_202" data-name="Group 202" transform="translate(0 0)">
          <path id="Path_69" data-name="Path 69" d="M380.48,564.694c-1.57,0-3.14.021-4.709-.006a17.605,17.605,0,0,1-3.883-.371,7.7,7.7,0,0,1-5.087-3.729,8.728,8.728,0,0,1-1.065-3.4,49.179,49.179,0,0,1-.191-5.479c-.006-2.009,0-4.019.018-6.028a23.876,23.876,0,0,1,.252-3.832,7.848,7.848,0,0,1,3.486-5.5,7.942,7.942,0,0,1,3.766-1.278c1.578-.121,3.163-.174,4.745-.193,2.3-.028,4.609-.014,6.914.01a21.15,21.15,0,0,1,3.935.3,7.739,7.739,0,0,1,5.492,3.843,9.022,9.022,0,0,1,1.093,3.742c.174,2.018.15,4.043.152,6.066,0,1.858,0,3.716-.032,5.574a17.7,17.7,0,0,1-.353,3.862,7.668,7.668,0,0,1-5.774,5.993,13.638,13.638,0,0,1-3.379.4c-1.793.033-3.585.055-5.378.082Zm-.044-2.634V562c1.556,0,3.111.016,4.666-.005a15.23,15.23,0,0,0,3.22-.274,5.027,5.027,0,0,0,4.05-3.98,16.344,16.344,0,0,0,.309-3.671c.029-2.448.023-4.9.016-7.346a30.222,30.222,0,0,0-.216-4.352,5.133,5.133,0,0,0-4.241-4.526,17.768,17.768,0,0,0-3.5-.269c-2.088-.028-4.177-.023-6.266-.021a45.05,45.05,0,0,0-5.135.181,5.831,5.831,0,0,0-2.649.915A5.169,5.169,0,0,0,368.5,542.1a17.232,17.232,0,0,0-.246,3.29c-.014,3.162,0,6.323.022,9.484a12.937,12.937,0,0,0,.258,2.769,4.992,4.992,0,0,0,3.268,3.85,8.992,8.992,0,0,0,2.95.473C376.649,562,378.543,562.028,380.437,562.06Z" transform="translate(-365.541 -534.864)" fill="#fff"/>
          <path id="Path_70" data-name="Path 70" d="M441.161,555.151a1.79,1.79,0,1,0,1.793-1.781A1.792,1.792,0,0,0,441.161,555.151Z" transform="translate(-420.054 -548.204)" fill="#fff"/>
          <path id="Path_71" data-name="Path 71" d="M406.889,568.553a7.664,7.664,0,1,1-7.715-7.655A7.689,7.689,0,0,1,406.889,568.553Zm-7.664,4.98a4.973,4.973,0,1,0-4.977-4.9A4.991,4.991,0,0,0,399.226,573.533Z" transform="translate(-384.299 -553.631)" fill="#fff"/>
          <path id="Path_72" data-name="Path 72" d="M441.161,555.151a1.79,1.79,0,1,1,1.765,1.8A1.8,1.8,0,0,1,441.161,555.151Z" transform="translate(-420.054 -548.204)" fill="#fff"/>
        </g>
      </g>
    </g>
  </g>
</svg>
