<svg id="Group_5401" data-name="Group 5401" xmlns="http://www.w3.org/2000/svg" xmlns:xlink="http://www.w3.org/1999/xlink" width="22.142" height="31" viewBox="0 0 22.142 31">
  <defs>
    <clipPath id="clip-path">
      <rect id="Rectangle_5441" data-name="Rectangle 5441" width="22.142" height="31" fill="#fff"/>
    </clipPath>
  </defs>
  <g id="Group_5400" data-name="Group 5400" clip-path="url(#clip-path)">
    <path id="Path_4012" data-name="Path 4012" d="M14.341,0A2.486,2.486,0,0,1,15.8,1.51c.158.349.324.694.485,1.041a1.008,1.008,0,0,0,.84.607c.56.072,1.122.136,1.675.243a1.7,1.7,0,0,1,1.5,2.122c-.064.458-.136.918-.242,1.368a1.28,1.28,0,0,0,.448,1.4,11.879,11.879,0,0,1,1.066,1.029,1.717,1.717,0,0,1,.018,2.54,12.325,12.325,0,0,1-1.106,1.074,1.255,1.255,0,0,0-.431,1.35c.108.491.193.989.262,1.488a1.687,1.687,0,0,1-1.4,2.007c-.342.078-.69.124-1.065.19.233.754.463,1.5.7,2.251q1.219,3.925,2.439,7.849c.024.077.052.153.07.232a.632.632,0,0,1-.172.666.622.622,0,0,1-.707.092l-1.883-.825c-.46-.2-.921-.4-1.4-.609-.226.36-.446.708-.663,1.057-.384.616-.77,1.231-1.148,1.851-.166.273-.355.506-.712.46s-.483-.308-.579-.618Q12.5,26.2,11.2,22.036c-.031-.1-.069-.2-.128-.371-.06.172-.1.271-.128.371q-1.3,4.17-2.593,8.339c-.012.038-.023.077-.035.116a.629.629,0,0,1-1.188.144q-.845-1.362-1.694-2.723c-.057-.092-.117-.183-.184-.288L2.187,28.963a3.235,3.235,0,0,1-.307.126.6.6,0,0,1-.807-.667,3.668,3.668,0,0,1,.158-.582Q2.717,23.049,4.2,18.258c.029-.094.05-.19.077-.291-.346-.059-.673-.106-1-.173a1.7,1.7,0,0,1-1.452-2.05c.069-.488.151-.976.258-1.458a1.253,1.253,0,0,0-.431-1.35A12.312,12.312,0,0,1,.553,11.861a1.717,1.717,0,0,1,.018-2.54A12.641,12.641,0,0,1,1.658,8.271a1.254,1.254,0,0,0,.433-1.35c-.109-.491-.193-.989-.262-1.488A1.664,1.664,0,0,1,3.195,3.439a10.056,10.056,0,0,1,1.463-.223A1.344,1.344,0,0,0,5.991,2.28c.091-.266.235-.512.351-.769A2.482,2.482,0,0,1,7.8,0h.545a3.554,3.554,0,0,1,.512.164c.5.243,1,.482,1.475.763a1.376,1.376,0,0,0,1.479,0C12.454.584,13.133.307,13.8,0ZM19.08,5.355c.016-.543-.074-.665-.541-.747-.566-.1-1.139-.153-1.706-.247A1.952,1.952,0,0,1,15.364,3.4c-.29-.517-.536-1.06-.8-1.592-.311-.628-.512-.7-1.138-.365-.276.146-.556.287-.818.456a2.624,2.624,0,0,1-3.064.008c-.279-.179-.576-.333-.871-.486-.586-.3-.78-.239-1.073.348-.229.46-.437.93-.669,1.388A2.129,2.129,0,0,1,5.264,4.369c-.518.077-1.04.135-1.557.22-.617.1-.713.23-.63.851a10.892,10.892,0,0,0,.212,1.128,2.477,2.477,0,0,1-.863,2.684c-.278.232-.536.49-.8.742-.5.487-.5.738.01,1.229.357.342.722.676,1.074,1.022a2.155,2.155,0,0,1,.63,2.017c-.1.555-.208,1.11-.276,1.669-.053.44.044.555.479.652.285.063.578.089.867.131.339.05.68.087,1.016.152a2.382,2.382,0,0,1,1.706,1.566c.191.421.4.833.615,1.245a.459.459,0,0,0,.663.216c.13-.055.258-.114.382-.181.382-.2.759-.418,1.142-.62a2.289,2.289,0,0,1,2.256-.006c.419.22.83.456,1.249.676.613.322.81.259,1.113-.358.222-.452.426-.913.654-1.362a2.149,2.149,0,0,1,1.7-1.214c.569-.082,1.141-.146,1.7-.252.422-.08.512-.207.466-.631a10.809,10.809,0,0,0-.223-1.309,2.474,2.474,0,0,1,.841-2.663c.277-.234.536-.491.8-.741.525-.5.527-.753.011-1.25-.356-.343-.722-.676-1.074-1.023a2.156,2.156,0,0,1-.63-2.018l.28-1.588M14.626,28.887c.093-.137.15-.216.2-.3.4-.641.8-1.284,1.2-1.925.293-.467.528-.538,1.039-.318.453.2.9.4,1.356.595.327.143.655.283,1.05.454l-2.863-9.228c-.153.239-.284.414-.382.606-.224.439-.409.9-.65,1.329a1.742,1.742,0,0,1-2.612.807c-.31-.152-.611-.322-.977-.516l2.636,8.493m-7.11,0,2.636-8.494c-.385.2-.7.389-1.036.547a1.722,1.722,0,0,1-2.525-.792c-.246-.438-.439-.906-.669-1.354-.1-.2-.234-.381-.39-.631L2.671,27.386c.172-.07.282-.111.389-.158.693-.3,1.383-.61,2.077-.908a.648.648,0,0,1,.949.3c.4.639.8,1.284,1.2,1.925.062.1.129.194.23.345" transform="translate(0)" fill="#fff"/>
    <path id="Path_4014" data-name="Path 4014" d="M46.056,48.545a7.025,7.025,0,1,1,7.034-7.021,7.039,7.039,0,0,1-7.034,7.021m.021-1.232a5.787,5.787,0,1,0-5.8-5.792,5.81,5.81,0,0,0,5.8,5.792" transform="translate(-34.994 -30.921)" fill="#fff"/>
    <path id="Path_4015" data-name="Path 4015" d="M59.808,59.842a4.861,4.861,0,0,1,4.747-4.579.626.626,0,0,1,.727.593c.011.378-.258.62-.718.644a3.629,3.629,0,0,0-3.433,2.809,3.968,3.968,0,0,0-.091.686c-.032.5-.272.774-.677.748-.383-.024-.594-.329-.562-.81,0-.03,0-.06.007-.09" transform="translate(-53.602 -49.535)" fill="#fff"/>
  </g>
</svg>
