<svg xmlns="http://www.w3.org/2000/svg" width="29.386" height="23.881" viewBox="0 0 29.386 23.881">
  <path id="iconmonstr-twitter-1_1_" data-name="iconmonstr-twitter-1 (1)" d="M29.386,5.075a12.037,12.037,0,0,1-3.463.949,6.039,6.039,0,0,0,2.651-3.335,12.077,12.077,0,0,1-3.829,1.463,6.033,6.033,0,0,0-10.274,5.5,17.115,17.115,0,0,1-12.425-6.3A6.037,6.037,0,0,0,3.911,11.4a6,6,0,0,1-2.729-.754,6.033,6.033,0,0,0,4.835,5.987,6.043,6.043,0,0,1-2.723.1,6.033,6.033,0,0,0,5.632,4.186A12.122,12.122,0,0,1,0,23.421a17.067,17.067,0,0,0,9.242,2.708c11.194,0,17.518-9.454,17.136-17.933a12.274,12.274,0,0,0,3.008-3.121Z" transform="translate(0 -2.248)" fill="#fff"/>
</svg>
